<svg width="24" height="24" viewBox="0 0 24 24" fill="none" xmlns="http://www.w3.org/2000/svg">
<path d="M14.0833 16.8C13.5 16.8 13.0083 16.608 12.6 16.216C12.2 15.832 11.9917 15.352 11.9917 14.792C11.9917 14.232 12.1917 13.76 12.6 13.368C13 12.984 13.5 12.784 14.0833 12.784C14.6667 12.784 15.1583 12.976 15.5667 13.368C15.975 13.76 16.175 14.232 16.175 14.792C16.175 15.352 15.975 15.824 15.5667 16.216C15.1667 16.6 14.6667 16.8 14.0833 16.8ZM6.16667 20C5.70833 20 5.31667 19.84 4.99167 19.528C4.66667 19.216 4.5 18.84 4.5 18.4V7.2C4.5 6.76 4.66667 6.384 4.99167 6.072C5.31667 5.76 5.70833 5.6 6.16667 5.6H7V4H8.66667V5.6H15.3333V4H17V5.6H17.8333C18.2917 5.6 18.6833 5.76 19.0083 6.072C19.3333 6.384 19.5 6.76 19.5 7.2V18.4C19.5 18.84 19.3333 19.216 19.0083 19.528C18.6833 19.84 18.2917 20 17.8333 20H6.16667ZM6.16667 18.4H17.8333V10.4H6.16667V18.4ZM6.16667 8.8H17.8333V7.2H6.16667V8.8Z" fill="white"/>
</svg>
