<svg width="64" height="64" viewBox="0 0 64 64" fill="none" xmlns="http://www.w3.org/2000/svg">
<rect width="64" height="64" rx="32" fill="#49454F"/>
<path d="M32.5 44C31.8125 44 31.225 43.7333 30.7375 43.2133C30.25 42.6933 30 42.0667 30 41.3333C30 40.6 30.25 39.9733 30.7375 39.4533C31.225 38.9333 31.8125 38.6667 32.5 38.6667C33.1875 38.6667 33.775 38.9333 34.2625 39.4533C34.75 39.9733 35 40.6 35 41.3333C35 42.0667 34.75 42.6933 34.2625 43.2133C33.775 43.7333 33.1875 44 32.5 44ZM32.5 36C31.8125 36 31.225 35.7333 30.7375 35.2133C30.25 34.6933 30 34.0667 30 33.3333V22.6667C30 21.9333 30.25 21.3067 30.7375 20.7867C31.225 20.2667 31.8125 20 32.5 20C33.1875 20 33.775 20.2667 34.2625 20.7867C34.75 21.3067 35 21.9333 35 22.6667V33.3333C35 34.0667 34.75 34.6933 34.2625 35.2133C33.775 35.7333 33.1875 36 32.5 36Z" fill="white"/>
</svg>
